<svg width="609" height="474" xmlns="http://www.w3.org/2000/svg" xmlns:xlink="http://www.w3.org/1999/xlink" overflow="hidden"><defs><clipPath id="clip0"><path d="M284 503 893 503 893 977 284 977Z" fill-rule="evenodd" clip-rule="evenodd"/></clipPath></defs><g clip-path="url(#clip0)" transform="translate(-284 -503)"><path d="M286 524.5C286 513.731 294.731 505 305.5 505L517.5 505C528.269 505 537 513.731 537 524.5L537 602.5C537 613.269 528.269 622 517.5 622L305.5 622C294.731 622 286 613.269 286 602.5Z" stroke="#002060" stroke-width="2" stroke-miterlimit="8" fill="#E7E6E6" fill-rule="evenodd"/><path d="M286 701.5C286 690.731 294.731 682 305.5 682L517.5 682C528.269 682 537 690.731 537 701.5L537 779.5C537 790.269 528.269 799 517.5 799L305.5 799C294.731 799 286 790.269 286 779.5Z" stroke="#002060" stroke-width="2" stroke-miterlimit="8" fill="#DAE3F3" fill-rule="evenodd"/><path d="M286 878.334C286 867.656 294.656 859 305.334 859L517.666 859C528.344 859 537 867.656 537 878.334L537 955.666C537 966.344 528.344 975 517.666 975L305.334 975C294.656 975 286 966.344 286 955.666Z" stroke="#002060" stroke-width="2" stroke-miterlimit="8" fill="#E7E6E6" fill-rule="evenodd"/><path d="M0.00442812-0.99999 96.4004-0.573133 96.3916 1.42685-0.00442812 0.99999ZM95.0804-3.57901 103.063 0.456378 95.0449 4.42091Z" fill="#002060" transform="matrix(1 0 0 -1 537 563.456)"/><path d="M537 916 633.396 916 633.396 918 537 918ZM632.063 913 640.063 917 632.063 921Z" fill="#002060"/><path d="M0.00968099-0.999953 96.406-0.0666975 96.3867 1.93321-0.00968099 0.999953ZM95.1018-3.07947 103.063 0.997795 95.0243 4.92016Z" fill="#002060" transform="matrix(-1 -8.74228e-08 -8.74228e-08 1 640.063 739)"/><path d="M412 799 412 852.667 410 852.667 410 799ZM415 851.333 411 859.333 407 851.333Z" fill="#002060"/><path d="M767 621 767 674.125 765 674.125 765 621ZM770 672.792 766 680.792 762 672.792Z" fill="#002060"/><text font-family="Georgia,Georgia_MSFontService,sans-serif" font-weight="400" font-size="17" transform="translate(346.396 557)">Input desorption <tspan x="11.6667" y="21">isotherm data</tspan></text><path d="M640 700.5C640 689.731 648.731 681 659.5 681L871.5 681C882.269 681 891 689.731 891 700.5L891 778.5C891 789.269 882.269 798 871.5 798L659.5 798C648.731 798 640 789.269 640 778.5Z" stroke="#002060" stroke-width="2" stroke-miterlimit="8" fill="#E7E6E6" fill-rule="evenodd"/><path d="M640 878.334C640 867.656 648.656 859 659.334 859L871.666 859C882.344 859 891 867.656 891 878.334L891 955.666C891 966.344 882.344 975 871.666 975L659.334 975C648.656 975 640 966.344 640 955.666Z" stroke="#002060" stroke-width="2" stroke-miterlimit="8" fill="#DAE3F3" fill-rule="evenodd"/><path d="M640 524.334C640 513.656 648.656 505 659.334 505L871.666 505C882.344 505 891 513.656 891 524.334L891 601.666C891 612.344 882.344 621 871.666 621L659.334 621C648.656 621 640 612.344 640 601.666Z" stroke="#002060" stroke-width="2" stroke-miterlimit="8" fill="#DAE3F3" fill-rule="evenodd"/><text font-family="Georgia,Georgia_MSFontService,sans-serif" font-weight="400" font-size="17" transform="translate(673.211 527)">Apply the modified BJH <tspan x="-6.25336" y="21">method using Eq. </tspan><tspan font-family="Times New Roman,Times New Roman_MSFontService,sans-serif" x="132.58" y="21">(</tspan><tspan font-family="Times New Roman,Times New Roman_MSFontService,sans-serif" x="138.413" y="21">7</tspan><tspan font-family="Times New Roman,Times New Roman_MSFontService,sans-serif" x="147.08" y="21">) </tspan><tspan x="157.247" y="21">with </tspan><tspan x="-15.42" y="41">variable </tspan><tspan font-style="italic" x="49.9133" y="41">c</tspan></text><text font-family="Arial,Arial_MSFontService,sans-serif" font-style="oblique" font-weight="400" font-size="17" direction="rtl" writing-mode="rl-tb" transform="translate(730.951 568)" x="4.83331"> </text><text font-family="Georgia,Georgia_MSFontService,sans-serif" font-weight="400" font-size="17" transform="translate(735.791 568)">(<tspan font-style="italic" x="6.5" y="0">j,n</tspan><tspan font-style="italic" x="26.3334" y="0">-</tspan>1) to calculate <tspan x="-69.5" y="21">pore volumes and average </tspan><tspan x="-13.6666" y="42">pore radius</tspan><tspan x="-49.4167" y="146">Calculate the surface </tspan><tspan x="-72.5834" y="167">energy parameter (</tspan><tspan font-style="italic" x="73.0833" y="167">C</tspan><tspan x="84.2499" y="167">) from </tspan><tspan x="-67.1701" y="187">Eq. </tspan><tspan font-family="Times New Roman,Times New Roman_MSFontService,sans-serif" x="-37.3368" y="187">(</tspan><tspan font-family="Times New Roman,Times New Roman_MSFontService,sans-serif" x="-31.5034" y="187">23</tspan><tspan font-family="Times New Roman,Times New Roman_MSFontService,sans-serif" x="-14.1701" y="187">) </tspan><tspan x="-4.00342" y="187">(concave case) or </tspan><tspan x="-53.0034" y="208">Eq. </tspan><tspan font-family="Times New Roman,Times New Roman_MSFontService,sans-serif" x="-23.1701" y="208">(</tspan><tspan font-family="Times New Roman,Times New Roman_MSFontService,sans-serif" x="-17.3368" y="208">25</tspan><tspan font-family="Times New Roman,Times New Roman_MSFontService,sans-serif" x="-0.00341797" y="208">) </tspan><tspan x="10.1632" y="208">(convex case)</tspan><tspan x="-407.564" y="158">Derive the desorption </tspan><tspan x="-411.144" y="179">isotherm for each pore </tspan><tspan x="-403.064" y="199">radius using Eq. </tspan><tspan font-family="Times New Roman,Times New Roman_MSFontService,sans-serif" x="-275.064" y="199">(</tspan><tspan font-family="Times New Roman,Times New Roman_MSFontService,sans-serif" x="-269.231" y="199">19</tspan><tspan font-family="Times New Roman,Times New Roman_MSFontService,sans-serif" x="-251.897" y="199">)</tspan><tspan x="-412.975" y="327">Apply linear regression </tspan><tspan x="-432.395" y="348">using Eq. </tspan><tspan font-family="Times New Roman,Times New Roman_MSFontService,sans-serif" x="-356.895" y="348">(</tspan><tspan font-family="Times New Roman,Times New Roman_MSFontService,sans-serif" x="-351.061" y="348">6</tspan><tspan font-family="Times New Roman,Times New Roman_MSFontService,sans-serif" x="-342.395" y="348">) </tspan>to calculate the <tspan x="-430.395" y="368">specific surface area of each </tspan><tspan x="-368.141" y="389">pore radius</tspan><tspan x="-62.1664" y="326">Sum the specific surface </tspan><tspan x="-60.4197" y="347">areas of all pore radii to </tspan><tspan x="-58.9997" y="367">obtain the total specific </tspan><tspan x="-16.1664" y="388">surface area</tspan></text></g></svg>