<svg width="528" height="345" xmlns="http://www.w3.org/2000/svg" xmlns:xlink="http://www.w3.org/1999/xlink" overflow="hidden"><defs><clipPath id="clip0"><path d="M413 543 941 543 941 888 413 888Z" fill-rule="evenodd" clip-rule="evenodd"/></clipPath></defs><g clip-path="url(#clip0)" transform="translate(-413 -543)"><path d="M773.5 706.5C773.5 699.873 810.66 694.5 856.5 694.5 902.34 694.5 939.5 699.873 939.5 706.5 939.5 713.128 902.34 718.5 856.5 718.5 810.66 718.5 773.5 713.128 773.5 706.5Z" stroke="#000000" stroke-width="3" stroke-miterlimit="8" fill="#0070C0" fill-rule="evenodd"/><path d="M589.5 706.5C589.5 699.873 616.811 694.5 650.5 694.5 684.189 694.5 711.5 699.873 711.5 706.5 711.5 713.128 684.189 718.5 650.5 718.5 616.811 718.5 589.5 713.128 589.5 706.5Z" stroke="#000000" stroke-width="3" stroke-miterlimit="8" fill="#0070C0" fill-rule="evenodd"/><path d="M589.5 874C589.5 867.096 616.811 861.5 650.5 861.5 684.189 861.5 711.5 867.096 711.5 874 711.5 880.904 684.189 886.5 650.5 886.5 616.811 886.5 589.5 880.904 589.5 874Z" stroke="#000000" stroke-width="3" stroke-miterlimit="8" fill="none" fill-rule="evenodd"/><path d="M773.5 874C773.5 867.096 810.66 861.5 856.5 861.5 902.34 861.5 939.5 867.096 939.5 874 939.5 880.904 902.34 886.5 856.5 886.5 810.66 886.5 773.5 880.904 773.5 874Z" stroke="#000000" stroke-width="3" stroke-miterlimit="8" fill="none" fill-rule="evenodd"/><path d="M0 0 0.000104987 167.229" stroke="#000000" stroke-width="3" stroke-miterlimit="8" fill="none" fill-rule="evenodd" transform="matrix(-1 -8.74228e-08 -8.74228e-08 1 711.5 706.5)"/><path d="M0 0 0.000104987 167.229" stroke="#000000" stroke-width="3" stroke-miterlimit="8" fill="none" fill-rule="evenodd" transform="matrix(-1 -8.74228e-08 -8.74228e-08 1 589.5 706.5)"/><path d="M0 0 0.000104987 167.229" stroke="#000000" stroke-width="3" stroke-miterlimit="8" fill="none" fill-rule="evenodd" transform="matrix(-1 -8.74228e-08 -8.74228e-08 1 939.5 706.5)"/><path d="M0 0 0.000104987 167.229" stroke="#000000" stroke-width="3" stroke-miterlimit="8" fill="none" fill-rule="evenodd" transform="matrix(-1 -8.74228e-08 -8.74228e-08 1 773.5 706.5)"/><path d="M786.5 705.5C786.5 702.186 817.84 699.5 856.5 699.5 895.16 699.5 926.5 702.186 926.5 705.5 926.5 708.814 895.16 711.5 856.5 711.5 817.84 711.5 786.5 708.814 786.5 705.5Z" stroke="#000000" stroke-width="1.33333" stroke-miterlimit="8" fill="#FFFFFF" fill-rule="evenodd"/><path d="M605.5 706C605.5 701.858 625.647 698.5 650.5 698.5 675.353 698.5 695.5 701.858 695.5 706 695.5 710.142 675.353 713.5 650.5 713.5 625.647 713.5 605.5 710.142 605.5 706Z" stroke="#000000" stroke-width="1.33333" stroke-miterlimit="8" fill="#FFFFFF" fill-rule="evenodd"/><path d="M786.5 705.5 786.768 873.061" stroke="#000000" stroke-width="0.666667" stroke-miterlimit="8" fill="none" fill-rule="evenodd"/><path d="M786.5 873C786.5 869.41 817.84 866.5 856.5 866.5 895.16 866.5 926.5 869.41 926.5 873 926.5 876.59 895.16 879.5 856.5 879.5 817.84 879.5 786.5 876.59 786.5 873Z" stroke="#000000" stroke-width="1.33333" stroke-miterlimit="8" fill="none" fill-rule="evenodd"/><path d="M0 0 0.468556 167.561" stroke="#000000" stroke-width="0.666667" stroke-miterlimit="8" fill="none" fill-rule="evenodd" transform="matrix(-1 -8.74228e-08 -8.74228e-08 1 926.969 705.5)"/><path d="M786.475 705.605 785.5 642.5" stroke="#000000" stroke-width="0.666667" stroke-miterlimit="8" fill="none" fill-rule="evenodd"/><path d="M926.422 706.673 925.5 642.5" stroke="#000000" stroke-width="0.666667" stroke-miterlimit="8" fill="none" fill-rule="evenodd"/><path d="M0.003384-0.333316 3.95722-0.293175 3.95045 0.373458-0.003384 0.333316ZM2.66118-3.97319 10.6202 0.107822 2.57996 4.0264Z" transform="matrix(-1 -8.74228e-08 -8.74228e-08 1 810.12 595.5)"/><path d="M774.5 596.167 778.861 596.167 778.861 596.833 774.5 596.833ZM777.528 592.5 785.528 596.5 777.528 600.5Z"/><path d="M604.5 706.5 605.256 871.874" stroke="#000000" stroke-width="0.666667" stroke-miterlimit="8" fill="none" fill-rule="evenodd"/><path d="M0 0 0.000104987 167.229" stroke="#000000" stroke-width="0.666667" stroke-miterlimit="8" fill="none" fill-rule="evenodd" transform="matrix(-1 -8.74228e-08 -8.74228e-08 1 695.5 706.5)"/><path d="M605.37 706.458 604.5 643.5" stroke="#000000" stroke-width="0.666667" stroke-miterlimit="8" fill="none" fill-rule="evenodd"/><path d="M695.37 706.458 694.5 643.5" stroke="#000000" stroke-width="0.666667" stroke-miterlimit="8" fill="none" fill-rule="evenodd"/><text font-family="Cambria Math,Cambria Math_MSFontService,sans-serif" font-weight="400" font-size="21" transform="translate(836.309 828)">ğ‘Ÿ</text><path d="M0.861328-12.2739-6.73682-12.2739-6.73682-13.3608 0.861328-13.3608Z" transform="translate(846.056 828)"/><text font-family="Cambria Math,Cambria Math_MSFontService,sans-serif" font-weight="400" font-size="15" transform="translate(842.936 832)">ğ‘<tspan font-size="13" x="9.83331" y="3">ğ‘</tspan><tspan font-size="13" x="20.6666" y="3">âˆ’</tspan><tspan font-size="13" x="30.1666" y="3">1</tspan><tspan font-size="21" x="-214.74" y="1">ğ‘Ÿ</tspan></text><path d="M0.861328-12.2739-6.73682-12.2739-6.73682-13.3608 0.861328-13.3608Z" transform="translate(637.942 833)"/><text font-family="Cambria Math,Cambria Math_MSFontService,sans-serif" font-weight="400" font-size="15" transform="translate(634.822 838)">ğ‘<tspan font-size="13" x="9.83331" y="3">ğ‘</tspan><tspan font-size="13" x="20.6667" y="3">âˆ’</tspan><tspan font-size="13" x="30.1667" y="3">2</tspan></text><path d="M604.5 643C604.5 638.858 624.647 635.5 649.5 635.5 674.353 635.5 694.5 638.858 694.5 643 694.5 647.142 674.353 650.5 649.5 650.5 624.647 650.5 604.5 647.142 604.5 643Z" stroke="#000000" stroke-width="1.33333" stroke-miterlimit="8" fill="#0070C0" fill-rule="evenodd"/><path d="M617.5 642.5C617.5 640.291 631.603 638.5 649 638.5 666.397 638.5 680.5 640.291 680.5 642.5 680.5 644.709 666.397 646.5 649 646.5 631.603 646.5 617.5 644.709 617.5 642.5Z" stroke="#2F528F" stroke-width="1.33333" stroke-miterlimit="8" fill="#FF0000" fill-rule="evenodd"/><text font-family="Cambria Math,Cambria Math_MSFontService,sans-serif" font-weight="400" font-size="13" transform="translate(602.987 587)">âˆ†<tspan x="7.66669" y="0">ğ‘¡</tspan><tspan font-family="Calibri,Calibri_MSFontService,sans-serif" x="12.6667" y="0"> </tspan><tspan font-size="9" x="15.5" y="2">ğ‘</tspan><tspan font-size="9" x="22.72" y="2">âˆ’</tspan><tspan font-size="9" x="29.5533" y="2">3</tspan></text><path d="M0.003384-0.333316 3.95722-0.293175 3.95045 0.373458-0.003384 0.333316ZM2.66118-3.97319 10.6202 0.107822 2.57996 4.0264Z" transform="matrix(-1 -8.74228e-08 -8.74228e-08 1 628.12 596.5)"/><path d="M593.5 597.167 597.861 597.167 597.861 597.833 593.5 597.833ZM596.528 593.5 604.528 597.5 596.528 601.5Z"/><path d="M604.5 595.5 604.5 642.24" stroke="#000000" stroke-width="0.666667" stroke-miterlimit="8" stroke-dasharray="2.66667 2" fill="none" fill-rule="evenodd"/><path d="M617.5 595.5 617.5 642.24" stroke="#000000" stroke-width="0.666667" stroke-miterlimit="8" stroke-dasharray="2.66667 2" fill="none" fill-rule="evenodd"/><path d="M680.5 595.5 680.5 642.24" stroke="#000000" stroke-width="0.666667" stroke-miterlimit="8" stroke-dasharray="2.66667 2" fill="none" fill-rule="evenodd"/><path d="M650.5 595.5 650.5 642.24" stroke="#000000" stroke-width="0.666667" stroke-miterlimit="8" stroke-dasharray="2.66667 2" fill="none" fill-rule="evenodd"/><path d="M6.67142-0.218352 24.4422 0.0880575 24.4307 0.754625 6.65993 0.448215ZM7.92985 4.13732 0 0 8.06777-3.86149ZM23.1723-3.60105 31.1022 0.536273 23.0344 4.39776Z" transform="matrix(1 0 0 -1 649.5 601.036)"/><text font-family="Cambria Math,Cambria Math_MSFontService,sans-serif" font-weight="400" font-size="13" transform="translate(656.726 586)">ğ‘Ÿ</text><path d="M0.533203-7.59814-4.17041-7.59814-4.17041-8.271 0.533203-8.271Z" transform="translate(662.572 586)"/><text font-family="Cambria Math,Cambria Math_MSFontService,sans-serif" font-weight="400" font-size="9" transform="translate(661.486 589)">ğ‘˜<tspan font-size="8" x="5.66669" y="2">ğ‘</tspan><tspan font-size="8" x="12.1667" y="2">âˆ’</tspan><tspan font-size="8" x="17.8333" y="2">2</tspan></text><path d="M670.002 639.394 670.194 636.381 670.854 633.348 673.238 627.483 676.911 622.07 681.721 617.197 687.354 613.1 693.628 609.963 700.364 607.91 707.211 607.213 713.961 606.525 713.771 606.564 720.333 604.564 720.178 604.626 726.303 601.563 726.162 601.649 731.662 597.649 731.538 597.755 736.226 593.005 736.11 593.146 739.673 587.896 739.557 588.123 741.321 583.15 743.206 583.818 741.4 588.913 737.714 594.345 732.904 599.218 727.271 603.315 720.997 606.452 714.261 608.505 707.414 609.203 700.664 609.89 700.854 609.852 694.292 611.852 694.447 611.79 688.322 614.852 688.463 614.766 682.963 618.766 683.087 618.66 678.399 623.41 678.515 623.269 674.952 628.519 675.051 628.334 672.739 634.022 672.79 633.858 672.165 636.733 672.185 636.584 671.998 639.521ZM738.076 583.972 743.625 576.958 745.907 585.606Z" fill="#FF0000"/><path d="M616.466 637.097 616.029 632.597 616.06 632.766 614.872 628.453 614.934 628.618 612.996 624.555 613.069 624.683 610.632 621.058 610.74 621.192 607.802 618.13 607.926 618.239 604.739 615.864 604.943 615.982 601.443 614.482 601.68 614.55 598.118 613.988 598.43 613.988 594.867 614.55 595.125 614.473 591.688 616.035 591.874 615.925 588.624 618.362 588.766 618.232 585.891 621.42 585.985 621.298 583.485 625.111 583.562 624.971 581.687 629.159 581.741 629.005 580.553 633.505 580.582 633.344 580.143 637.982 579.565 642.733 577.871 647.425 575.341 651.772 571.977 655.653 568.035 658.949 563.6 661.492 560.755 662.285 560.218 660.359 562.943 659.599 562.714 659.695 566.964 657.258 566.82 657.358 570.633 654.17 570.518 654.283 573.768 650.533 573.66 650.684 576.097 646.497 576.021 646.66 577.646 642.16 577.594 642.379 578.156 637.754 578.153 637.781 578.599 633.074 579.828 628.416 581.769 624.081 584.355 620.137 587.346 616.821 590.761 614.26 594.421 612.596 598.274 611.988 602.116 612.594 605.839 614.19 609.188 616.685 612.243 619.87 614.77 623.628 616.777 627.837 618.011 632.318 618.457 636.903ZM562.611 664.964 553.961 662.688 560.972 657.133Z" fill="#0070C0"/><text fill="#FF0000" font-family="Georgia,Georgia_MSFontService,sans-serif" font-weight="400" font-size="19" transform="translate(676.807 568)">capillary liquid<tspan fill="#0070C0" x="-251.871" y="102">adsorbed film</tspan><tspan fill="#000000" font-family="Cambria Math,Cambria Math_MSFontService,sans-serif" font-size="15" x="156.1" y="195">(</tspan><tspan fill="#000000" font-family="Cambria Math,Cambria Math_MSFontService,sans-serif" font-size="15" x="164.753" y="184">ğ‘ƒ</tspan><tspan fill="#000000" font-family="Cambria Math,Cambria Math_MSFontService,sans-serif" font-size="15" x="162.266" y="205">ğ‘ƒ</tspan><tspan fill="#000000" font-family="Cambria Math,Cambria Math_MSFontService,sans-serif" font-size="11" x="169.993" y="208">0</tspan></text><path d="M839.52 758.161 854.52 758.161 854.52 759.161 839.52 759.161Z" fill-rule="evenodd"/><text font-family="Cambria Math,Cambria Math_MSFontService,sans-serif" font-weight="400" font-size="15" transform="translate(853.754 763)">)<tspan font-size="11" x="6.16663" y="3">ğ‘</tspan><tspan font-size="11" x="14.5866" y="3">âˆ’</tspan><tspan font-size="11" x="22.5866" y="3">1</tspan><tspan x="-228.124" y="0">(</tspan><tspan x="-219.47" y="-11">ğ‘ƒ</tspan><tspan x="-221.957" y="10">ğ‘ƒ</tspan><tspan font-size="11" x="-214.23" y="13">0</tspan></text><path d="M631.743 758.161 646.743 758.161 646.743 759.161 631.743 759.161Z" fill-rule="evenodd"/><text font-family="Cambria Math,Cambria Math_MSFontService,sans-serif" font-weight="400" font-size="15" transform="translate(646.477 763)">)<tspan font-size="11" x="6.16669" y="3">ğ‘</tspan><tspan font-size="11" x="14.5867" y="3">âˆ’</tspan><tspan font-size="11" x="22.5867" y="3">2</tspan></text><path d="M4.03261e-06-2 4-1.99999 4 2.00001-4.03261e-06 2ZM8-1.99998 12-1.99998 12 2.00002 8 2.00002ZM16-1.99997 20-1.99996 20 2.00004 16 2.00003ZM24-1.99995 28-1.99994 28 2.00006 24 2.00005ZM32-1.99994 36-1.99993 36 2.00007 32 2.00006ZM40-1.99992 42.0689-1.99992 42.0689 2.00008 40 2.00008ZM40.0689-5.99992 52.0689 0.000104987 40.0689 6.00008Z" transform="matrix(-1 -8.74228e-08 -8.74228e-08 1 767.069 757)"/><path d="M605.5 872.5C605.5 868.634 625.647 865.5 650.5 865.5 675.353 865.5 695.5 868.634 695.5 872.5 695.5 876.366 675.353 879.5 650.5 879.5 625.647 879.5 605.5 876.366 605.5 872.5Z" stroke="#000000" stroke-width="1.33333" stroke-miterlimit="8" fill="none" fill-rule="evenodd"/><path d="M785.5 642.5C785.5 636.977 816.84 632.5 855.5 632.5 894.16 632.5 925.5 636.977 925.5 642.5 925.5 648.023 894.16 652.5 855.5 652.5 816.84 652.5 785.5 648.023 785.5 642.5Z" stroke="#000000" stroke-width="1.33333" stroke-miterlimit="8" fill="#0070C0" fill-rule="evenodd"/><path d="M798.5 642C798.5 638.963 824.244 636.5 856 636.5 887.756 636.5 913.5 638.963 913.5 642 913.5 645.038 887.756 647.5 856 647.5 824.244 647.5 798.5 645.038 798.5 642Z" stroke="#000000" stroke-width="1.33333" stroke-miterlimit="8" fill="#FFFFFF" fill-rule="evenodd"/><path d="M785.5 595.5 785.5 642.24" stroke="#000000" stroke-width="0.666667" stroke-miterlimit="8" stroke-dasharray="2.66667 2" fill="none" fill-rule="evenodd"/><path d="M798.5 594.5 798.5 641.24" stroke="#000000" stroke-width="0.666667" stroke-miterlimit="8" stroke-dasharray="2.66667 2" fill="none" fill-rule="evenodd"/><path d="M420.5 874C420.5 867.096 442.886 861.5 470.5 861.5 498.114 861.5 520.5 867.096 520.5 874 520.5 880.904 498.114 886.5 470.5 886.5 442.886 886.5 420.5 880.904 420.5 874Z" stroke="#000000" stroke-width="3" stroke-miterlimit="8" fill="none" fill-rule="evenodd"/><path d="M0 0 0.000104987 167.229" stroke="#000000" stroke-width="3" stroke-miterlimit="8" fill="none" fill-rule="evenodd" transform="matrix(-1 -8.74228e-08 -8.74228e-08 1 520.5 706.5)"/><path d="M420.5 706.5 420.5 873.729" stroke="#000000" stroke-width="3" stroke-miterlimit="8" fill="none" fill-rule="evenodd"/><text font-family="Cambria Math,Cambria Math_MSFontService,sans-serif" font-weight="400" font-size="21" transform="translate(449.406 833)">ğ‘Ÿ</text><path d="M0.861328-12.2739-6.73682-12.2739-6.73682-13.3608 0.861328-13.3608Z" transform="translate(459.152 833)"/><text font-family="Cambria Math,Cambria Math_MSFontService,sans-serif" font-weight="400" font-size="15" transform="translate(456.032 838)">ğ‘<tspan font-size="13" x="9.83334" y="3">ğ‘</tspan><tspan font-size="13" x="20.6667" y="3">âˆ’</tspan><tspan font-size="13" x="30.1667" y="3">3</tspan><tspan x="-9.94666" y="-75">(</tspan><tspan x="-1.29333" y="-86">ğ‘ƒ</tspan><tspan x="-3.78" y="-65">ğ‘ƒ</tspan><tspan font-size="11" x="3.94666" y="-62">0</tspan></text><path d="M451.779 758.161 459.279 758.161 466.779 758.161 466.779 759.161 459.279 759.161 451.779 759.161Z" fill-rule="evenodd"/><text font-family="Cambria Math,Cambria Math_MSFontService,sans-serif" font-weight="400" font-size="15" transform="translate(466.932 763)">)<tspan font-size="11" x="6.16669" y="3">ğ‘</tspan><tspan font-size="11" x="14.5867" y="3">âˆ’</tspan><tspan font-size="11" x="22.5867" y="3">3</tspan></text><path d="M434.5 873.5C434.5 869.634 451.066 866.5 471.5 866.5 491.935 866.5 508.5 869.634 508.5 873.5 508.5 877.366 491.935 880.5 471.5 880.5 451.066 880.5 434.5 877.366 434.5 873.5Z" stroke="#000000" stroke-width="1.33333" stroke-miterlimit="8" fill="none" fill-rule="evenodd"/><path d="M4.03261e-06-2 4-1.99999 4 2.00001-4.03261e-06 2ZM8-1.99998 12-1.99998 12 2.00002 8 2.00002ZM16-1.99997 20-1.99996 20 2.00004 16 2.00003ZM24-1.99995 28-1.99994 28 2.00006 24 2.00005ZM32-1.99994 36-1.99993 36 2.00007 32 2.00006ZM40-1.99992 42.0689-1.99992 42.0689 2.00008 40 2.00008ZM40.0689-5.99992 52.0689 0.000104987 40.0689 6.00008Z" transform="matrix(-1 -8.74228e-08 -8.74228e-08 1 580.069 756)"/><path d="M420.5 707.5C420.5 703.082 442.886 699.5 470.5 699.5 498.114 699.5 520.5 703.082 520.5 707.5 520.5 711.918 498.114 715.5 470.5 715.5 442.886 715.5 420.5 711.918 420.5 707.5Z" stroke="#000000" stroke-width="3" stroke-miterlimit="8" fill="#0070C0" fill-rule="evenodd"/><path d="M435.5 706.5C435.5 704.291 451.394 702.5 471 702.5 490.606 702.5 506.5 704.291 506.5 706.5 506.5 708.709 490.606 710.5 471 710.5 451.394 710.5 435.5 708.709 435.5 706.5Z" stroke="#2F528F" stroke-width="1.33333" stroke-miterlimit="8" fill="#FF0000" fill-rule="evenodd"/><path d="M0 0 0.220892 166.485" stroke="#000000" stroke-width="0.666667" stroke-miterlimit="8" fill="none" fill-rule="evenodd" transform="matrix(-1 -8.74228e-08 -8.74228e-08 1 434.721 706.5)"/><path d="M506.5 706.5 508.794 872.985" stroke="#000000" stroke-width="0.666667" stroke-miterlimit="8" fill="none" fill-rule="evenodd"/><text font-family="Cambria Math,Cambria Math_MSFontService,sans-serif" font-weight="400" font-size="13" transform="translate(782.68 586)">âˆ†<tspan x="7.66669" y="0">ğ‘¡</tspan><tspan font-family="Calibri,Calibri_MSFontService,sans-serif" x="12.6667" y="0"> </tspan><tspan font-size="9" x="15.5" y="2">ğ‘</tspan><tspan font-size="9" x="22.72" y="2">âˆ’</tspan><tspan font-size="9" x="29.5533" y="2">3</tspan></text><path d="M0 0 0.000104987 66.5564" stroke="#000000" stroke-width="0.666667" stroke-miterlimit="8" fill="none" fill-rule="evenodd" transform="matrix(1 0 0 -1 798.5 709.056)"/><path d="M0 0 0.266562 66.5564" stroke="#000000" stroke-width="0.666667" stroke-miterlimit="8" fill="none" fill-rule="evenodd" transform="matrix(1 0 0 -1 913.5 709.056)"/><path d="M617.5 642.5 618.421 710.721" stroke="#000000" stroke-width="0.666667" stroke-miterlimit="8" fill="none" fill-rule="evenodd"/><path d="M680.5 642.5 680.5 710.721" stroke="#000000" stroke-width="0.666667" stroke-miterlimit="8" fill="none" fill-rule="evenodd"/><path d="M798.5 708.5 798.5 874.799" stroke="#000000" stroke-width="0.666667" stroke-miterlimit="8" stroke-dasharray="2.66667 2" fill="none" fill-rule="evenodd"/><path d="M913.5 708.5 913.5 874.799" stroke="#000000" stroke-width="0.666667" stroke-miterlimit="8" stroke-dasharray="2.66667 2" fill="none" fill-rule="evenodd"/><path d="M618.5 710.5 618.5 873.02" stroke="#000000" stroke-width="0.666667" stroke-miterlimit="8" stroke-dasharray="2.66667 2" fill="none" fill-rule="evenodd"/><path d="M680.5 711.5 680.5 874.02" stroke="#000000" stroke-width="0.666667" stroke-miterlimit="8" stroke-dasharray="2.66667 2" fill="none" fill-rule="evenodd"/></g></svg>