<svg width="402" height="230" xmlns="http://www.w3.org/2000/svg" xmlns:xlink="http://www.w3.org/1999/xlink" overflow="hidden"><defs><clipPath id="clip0"><path d="M433 497 835 497 835 727 433 727Z" fill-rule="evenodd" clip-rule="evenodd"/></clipPath></defs><g clip-path="url(#clip0)" transform="translate(-433 -497)"><path d="M549 616C549 555.249 598.025 506 658.5 506 718.975 506 768 555.249 768 616 768 676.751 718.975 726 658.5 726 598.025 726 549 676.751 549 616Z" stroke="#000000" stroke-width="2" stroke-miterlimit="8" fill="#0070C0" fill-rule="evenodd"/><path d="M580 616C580 572.37 615.593 537 659.5 537 703.407 537 739 572.37 739 616 739 659.63 703.407 695 659.5 695 615.593 695 580 659.63 580 616Z" stroke="#000000" stroke-width="2" stroke-miterlimit="8" fill="#FF0000" fill-rule="evenodd"/><path d="M593 616C593 579.549 622.549 550 659 550 695.451 550 725 579.549 725 616 725 652.451 695.451 682 659 682 622.549 682 593 652.451 593 616Z" stroke="#000000" stroke-width="2" stroke-miterlimit="8" fill="#FFFFFF" fill-rule="evenodd"/><path d="M5.18548 4.24268 73.2606 72.3178 72.3177 73.2607 4.24268 5.18549ZM2.82842 8.48528 0 0 8.48528 2.82843ZM74.6748 69.018 77.5032 77.5033 69.0179 74.6749Z" transform="matrix(-1 -8.74228e-08 -8.74228e-08 1 737.003 538.5)"/><path d="M710.88 668.402 663.764 621.668 664.703 620.721 711.819 667.455ZM713.22 664.15 716.083 672.623 707.586 669.829ZM662.363 624.974 659.5 616.5 667.997 619.294Z"/><path d="M5.18544 4.24263 42.5266 41.5838 41.5838 42.5266 4.24263 5.18544ZM2.82843 8.48528 0 0 8.48528 2.82843ZM43.9408 38.284 46.7692 46.7692 38.284 43.9408Z" transform="matrix(-1 -8.74228e-08 -8.74228e-08 1 659.269 616.5)"/><text font-family="Cambria Math,Cambria Math_MSFontService,sans-serif" font-weight="400" font-size="17" transform="translate(669.614 571)">𝑟</text><path d="M0.697266-9.93604-5.45361-9.93604-5.45361-10.8159 0.697266-10.8159Z" transform="translate(677.414 571)"/><text font-family="Cambria Math,Cambria Math_MSFontService,sans-serif" font-weight="400" transform="translate(675.908 575)">𝑃<tspan x="9" y="2">𝑛</tspan><tspan font-size="17" x="12.1973" y="64">𝑟</tspan><tspan x="18.4907" y="68">𝑖</tspan><tspan font-size="19" x="-65.9364" y="54">𝑟</tspan><tspan font-size="14" x="-58.8764" y="58">𝑖</tspan><tspan font-size="14" x="-53.563" y="58">−</tspan><tspan font-size="14" x="-43.3964" y="58">1</tspan></text><path d="M659.5 506.5 805.472 506.5" stroke="#000000" stroke-width="1.33333" stroke-miterlimit="8" stroke-dasharray="1.33333 1.33333" fill="none" fill-rule="evenodd"/><path d="M659.5 544.5 805.472 544.5" stroke="#000000" stroke-width="1.33333" stroke-miterlimit="8" stroke-dasharray="1.33333 1.33333" fill="none" fill-rule="evenodd"/><path d="M798.167 513.167 798.167 536.841 796.833 536.841 796.833 513.167ZM793.5 514.5 797.5 506.5 801.5 514.5ZM801.5 535.508 797.5 543.508 793.5 535.508Z"/><text font-family="Cambria Math,Cambria Math_MSFontService,sans-serif" font-weight="400" font-size="17" transform="translate(806.611 530)">𝑡<tspan font-size="12" x="6.41998" y="3">𝑟</tspan></text><path d="M0.492188-7.01367-3.84961-7.01367-3.84961-7.63477 0.492188-7.63477Z" transform="translate(819.397 533)"/><text font-family="Cambria Math,Cambria Math_MSFontService,sans-serif" font-weight="400" transform="translate(820.797 536)">𝑖<tspan font-size="17" x="-376.868" y="87">𝑐</tspan><tspan font-size="17" x="-363.755" y="87">=</tspan><tspan font-size="17" x="-346.181" y="73">𝑟</tspan></text><path d="M0.697266-9.93604-5.45361-9.93604-5.45361-10.8159 0.697266-10.8159Z" transform="translate(482.416 609)"/><text font-family="Cambria Math,Cambria Math_MSFontService,sans-serif" font-weight="400" transform="translate(480.909 613)">𝑃<tspan x="9" y="2">𝑛</tspan><tspan font-size="17" x="21.88" y="-4">−</tspan><tspan font-size="17" x="38.5067" y="-4">𝑡</tspan><tspan x="44.9267" y="0">𝑟</tspan></text><path d="M0.492188-7.01367-3.84961-7.01367-3.84961-7.63477 0.492188-7.63477Z" transform="translate(532.203 612)"/><text font-family="Cambria Math,Cambria Math_MSFontService,sans-serif" font-weight="400" transform="translate(533.603 615)">𝑖<tspan font-size="17" x="-38.9533" y="19">𝑟</tspan></text><path d="M0.697266-9.93604-5.45361-9.93604-5.45361-10.8159 0.697266-10.8159Z" transform="translate(502.449 634)"/><text font-family="Cambria Math,Cambria Math_MSFontService,sans-serif" font-weight="400" transform="translate(500.943 638)">𝑃<tspan x="9" y="3">𝑛</tspan></text><path d="M474.416 617.977 495.749 617.977 517.083 617.977 538.416 617.977 538.416 618.977 517.083 618.977 495.749 618.977 474.416 618.977Z" fill-rule="evenodd"/></g></svg>